<svg xmlns="http://www.w3.org/2000/svg" width="1920" height="1240" viewBox="0 0 1920 1240" font-family="ui-monospace, SFMono-Regular, Menlo, Consolas, monospace">
  <defs>
    <pattern id="grid" width="40" height="40" patternUnits="userSpaceOnUse">
      <path d="M40 0H0V40" fill="none" stroke="#1E4568" stroke-width="1"></path>
    </pattern>
    <pattern id="hatch" width="8" height="8" patternUnits="userSpaceOnUse" patternTransform="rotate(45)">
      <line x1="0" y1="0" x2="0" y2="8" stroke="#3D6A94" stroke-width="1.5"></line>
    </pattern>
    <marker id="arrow" viewBox="0 0 10 10" refX="9" refY="5" markerWidth="7" markerHeight="7" orient="auto-start-reverse">
      <path d="M0 0 L10 5 L0 10 z" fill="#CFE4F5"></path>
    </marker>
    <marker id="arrowAmber" viewBox="0 0 10 10" refX="9" refY="5" markerWidth="7" markerHeight="7" orient="auto-start-reverse">
      <path d="M0 0 L10 5 L0 10 z" fill="#F5B84A"></path>
    </marker>
    <marker id="arrowCyan" viewBox="0 0 10 10" refX="9" refY="5" markerWidth="7" markerHeight="7" orient="auto-start-reverse">
      <path d="M0 0 L10 5 L0 10 z" fill="#7FD1F0"></path>
    </marker>
  </defs>

  <rect width="1920" height="1240" fill="#14324E"></rect>
  <rect width="1920" height="1240" fill="url(#grid)"></rect>
  <rect x="18" y="18" width="1884" height="1204" fill="none" stroke="#CFE4F5" stroke-width="2"></rect>
  <rect x="26" y="26" width="1868" height="1188" fill="none" stroke="#3D6A94" stroke-width="1"></rect>
  <g stroke="#7FA8CC" stroke-width="1">
    <path d="M50 40 v20 M40 50 h20"></path><path d="M1870 40 v20 M1860 50 h20"></path>
    <path d="M50 1180 v20 M40 1190 h20"></path><path d="M1870 1180 v20 M1860 1190 h20"></path>
  </g>

  <text x="60" y="86" fill="#E8F2FB" font-size="30" font-weight="700" letter-spacing="4">AI WORK HARNESS</text>
  <text x="60" y="112" fill="#9DBBD6" font-size="13" letter-spacing="3">PERSONAL AI WORKSPACE · ~/Work</text>
  <line x1="60" y1="128" x2="700" y2="128" stroke="#CFE4F5" stroke-width="1.5"></line>
  <text x="1860" y="86" fill="#7FD1F0" font-size="12" letter-spacing="2" text-anchor="end">DWG HARNESS-001</text>
  <text x="1860" y="104" fill="#9DBBD6" font-size="11" letter-spacing="2" text-anchor="end">REV Q · SHEET 1 OF 2</text>

  
  <text x="60" y="168" fill="#7FD1F0" font-size="11" letter-spacing="3">L5 — THINKING</text>
  <rect x="60" y="180" width="980" height="84" fill="#1B3E5F" stroke="#7FD1F0" stroke-width="2"></rect>
  <text x="84" y="212" fill="#E8F2FB" font-size="16" font-weight="700" letter-spacing="1">YOU  +  FRONTIER MODEL SESSION</text>
  <text x="84" y="240" fill="#9DBBD6" font-size="12">judgment · architecture · hard debugging · tight context</text>
  <text x="1016" y="212" fill="#7FD1F0" font-size="11" text-anchor="end">EXPENSIVE / RARE</text>

  <line x1="550" y1="264" x2="550" y2="292" stroke="#CFE4F5" stroke-width="2" marker-end="url(#arrow)"></line>
  <text x="566" y="284" fill="#CFE4F5" font-size="11" letter-spacing="1">DELEGATES DOWN ONLY</text>

  <text x="60" y="316" fill="#7FD1F0" font-size="11" letter-spacing="3">L4 — WORKERS · SIX AGENTS (.agent.md)</text>
  <rect x="60" y="328" width="980" height="240" fill="none" stroke="#CFE4F5" stroke-width="1.5" stroke-dasharray="6 4"></rect>
  <g>
    <rect x="80" y="344" width="224" height="58" fill="#1B3E5F" stroke="#CFE4F5" stroke-width="1.5"></rect>
    <text x="94" y="368" fill="#E8F2FB" font-size="12.5" font-weight="700">ticket-scribe</text>
    <text x="94" y="388" fill="#9DBBD6" font-size="10.5">session log + state</text>
    <rect x="316" y="344" width="224" height="58" fill="#1B3E5F" stroke="#CFE4F5" stroke-width="1.5"></rect>
    <text x="330" y="368" fill="#E8F2FB" font-size="12.5" font-weight="700">check-scribe</text>
    <text x="330" y="388" fill="#9DBBD6" font-size="10.5">checks → notebook*</text>
    <rect x="552" y="344" width="224" height="58" fill="#1B3E5F" stroke="#CFE4F5" stroke-width="1.5"></rect>
    <text x="566" y="368" fill="#E8F2FB" font-size="12.5" font-weight="700">doc-writer</text>
    <text x="566" y="388" fill="#9DBBD6" font-size="10.5">PRs · READMEs</text>
    <rect x="788" y="344" width="224" height="58" fill="#1B3E5F" stroke="#CFE4F5" stroke-width="1.5"></rect>
    <text x="802" y="368" fill="#E8F2FB" font-size="12.5" font-weight="700">knowledge-keeper</text>
    <text x="802" y="388" fill="#9DBBD6" font-size="10.5">capture learnings</text>
  </g>
  <text x="80" y="426" fill="#9DBBD6" font-size="10.5" letter-spacing="1">CHEAP TIER · USER-INVOCABLE + AUTO AT TASK END · EVERY SESSION</text>
  <rect x="80" y="442" width="560" height="56" fill="#1B3E5F" stroke="#7FD1F0" stroke-width="2"></rect>
  <text x="96" y="464" fill="#E8F2FB" font-size="12.5" font-weight="700">knowledge-curator</text>
  <text x="96" y="484" fill="#9DBBD6" font-size="10.5">compact + promote (with approval) · SONNET TIER · DIRECT INVOKE ONLY · RARE</text>
  <rect x="660" y="442" width="352" height="56" fill="#1B3E5F" stroke="#7FD1F0" stroke-width="2"></rect>
  <text x="676" y="464" fill="#E8F2FB" font-size="12.5" font-weight="700">ticket-init</text>
  <text x="676" y="484" fill="#9DBBD6" font-size="10.5">interactive kickoff · SONNET · DIRECT · at pickup</text>
  <text x="80" y="540" fill="#9DBBD6" font-size="10.5">*via append_notebook_cell.py</text>

  <line x1="550" y1="568" x2="550" y2="596" stroke="#CFE4F5" stroke-width="2" marker-end="url(#arrow)"></line>
  <text x="566" y="588" fill="#CFE4F5" font-size="11" letter-spacing="1">WRITES FILES</text>

  <text x="60" y="620" fill="#7FD1F0" font-size="11" letter-spacing="3">L3 — FILESYSTEM · SINGLE SOURCE OF TRUTH</text>
  <rect x="60" y="632" width="980" height="256" fill="none" stroke="#CFE4F5" stroke-width="1.5"></rect>
  <rect x="80" y="648" width="460" height="78" fill="#1B3E5F" stroke="#7FD1F0" stroke-width="2"></rect>
  <text x="96" y="674" fill="#E8F2FB" font-size="14" font-weight="700">folder-structure.md</text>
  <text x="96" y="694" fill="#9DBBD6" font-size="11">THE CONSTITUTION — every rule lives here</text>
  <text x="96" y="710" fill="#9DBBD6" font-size="11">conventions · atomicity · context budget</text>
  <rect x="560" y="648" width="460" height="78" fill="#1B3E5F" stroke="#CFE4F5" stroke-width="1.5"></rect>
  <text x="576" y="674" fill="#E8F2FB" font-size="14" font-weight="700">Tickets/&lt;ID&gt;/</text>
  <text x="576" y="694" fill="#9DBBD6" font-size="11">&lt;ID&gt;.md → Current State + Session Log</text>
  <text x="576" y="710" fill="#9DBBD6" font-size="11">AI-Knowledge/ + _index.md · Checks/ · Logs/ · Dump/</text>
  <rect x="80" y="760" width="460" height="78" fill="#1B3E5F" stroke="#CFE4F5" stroke-width="1.5"></rect>
  <text x="96" y="786" fill="#E8F2FB" font-size="14" font-weight="700">General AI-Knowledge/</text>
  <text x="96" y="806" fill="#9DBBD6" font-size="11">durable, ticket-free knowledge · one topic/folder</text>
  <text x="96" y="822" fill="#9DBBD6" font-size="11">&#34;Last reviewed:&#34; dated · incl. this drawing</text>
  <rect x="560" y="760" width="460" height="78" fill="#1B3E5F" stroke="#CFE4F5" stroke-width="1.5"></rect>
  <text x="576" y="786" fill="#E8F2FB" font-size="14" font-weight="700">AGENTS.md</text>
  <text x="576" y="806" fill="#9DBBD6" font-size="11">THE LOADER — six-rule contract Copilot reads</text>
  <text x="576" y="822" fill="#9DBBD6" font-size="11">on every surface → points at the constitution</text>
  <path d="M620 726 V744 H360 V754" fill="none" stroke="#7FD1F0" stroke-width="1.5" stroke-dasharray="5 4" marker-end="url(#arrowCyan)"></path>
  <text x="390" y="739" fill="#7FD1F0" font-size="10">curator promotes (approved)</text>
  <text x="96" y="858" fill="#9DBBD6" font-size="10.5">Tickets/ markers — init writes .ticket-pending; you write .not-a-ticket</text>
  <text x="96" y="874" fill="#9DBBD6" font-size="10.5">.not-a-ticket → silence a non-ticket · .ticket-pending → non-silenceable, nags until renamed AND marker removed</text>

  <line x1="550" y1="888" x2="550" y2="916" stroke="#F5B84A" stroke-width="2" marker-end="url(#arrowAmber)"></line>
  <text x="566" y="908" fill="#F5B84A" font-size="11" letter-spacing="1">VALIDATED ON ENTRY</text>

  <text x="60" y="940" fill="#F5B84A" font-size="11" letter-spacing="3">L2 — ENFORCEMENT · DUMB INSPECTOR (NO AI)</text>
  <rect x="60" y="952" width="980" height="104" fill="#1B3E5F" stroke="#F5B84A" stroke-width="2"></rect>
  <text x="84" y="976" fill="#E8F2FB" font-size="13.5" font-weight="700">hooks: postToolUse → commit · sessionStart → validate · sessionEnd = bonus</text>
  <text x="84" y="995" fill="#F5B84A" font-size="11">· commit hooks act in a KEYED estate only</text>
  <text x="84" y="1013" fill="#9DBBD6" font-size="11.5">FAILS: missing log entry · missing Current State · index orphans/ghosts</text>
  <text x="84" y="1030" fill="#9DBBD6" font-size="11.5">NAGS: index &gt; 10 files → run curator · 3+ sessions with empty AI-Knowledge</text>
  <text x="84" y="1048" fill="#F5B84A" font-size="11">checks facts only — never judges content · no ticket touched = vacuous pass</text>

  <line x1="550" y1="1056" x2="550" y2="1080" stroke="#CFE4F5" stroke-width="2" marker-end="url(#arrow)"></line>
  <text x="566" y="1072" fill="#CFE4F5" font-size="11" letter-spacing="1">EVERY WRITE AUTO-COMMITS — KEYED ESTATE ONLY</text>

  <rect x="60" y="1084" width="980" height="74" fill="url(#hatch)" stroke="#CFE4F5" stroke-width="2"></rect>
  <rect x="60" y="1084" width="980" height="74" fill="#14324E" opacity="0.55"></rect>
  <text x="84" y="1108" fill="#E8F2FB" font-size="13.5" font-weight="700">L1 — SAFETY NET · git — LOCAL ONLY, rooted at Work/, WHITELIST-scoped</text>
  <text x="84" y="1129" fill="#9DBBD6" font-size="11">every write commits · NO REMOTE, EVER · records only: tickets(−Logs/Dump) · constitution · AGENTS.md · _agents · _harness · GAK</text>
  <g stroke="#CFE4F5" stroke-width="1.2" fill="none">
    <circle cx="89" cy="1144" r="3.5"></circle>
    <path d="M92.5 1144 H103 M99 1144 V1148 M103 1144 V1147"></path>
  </g>
  <text x="110" y="1148" fill="#9DBBD6" font-size="11">armed at install: .git/config harness.estate=true — no key, no auto-commit</text>

  
  <text x="1080" y="168" fill="#7FD1F0" font-size="11" letter-spacing="3">M — MAINTENANCE PORT · OFFLINE, ON DEMAND</text>
  <rect x="1080" y="180" width="780" height="300" fill="none" stroke="#7FD1F0" stroke-width="1.5" stroke-dasharray="6 4"></rect>
  <text x="1100" y="212" fill="#E8F2FB" font-size="13" font-weight="700">make_context_pack.sh</text>
  <text x="1100" y="232" fill="#9DBBD6" font-size="11">scrub table → zip + manifest → Desktop (disposable) → external review</text>
  <text x="1100" y="268" fill="#E8F2FB" font-size="13" font-weight="700">harness-status.sh</text>
  <text x="1100" y="288" fill="#9DBBD6" font-size="11">estate report: last-session + AI-Knowledge counts · naming/size/commit-lag WARNs</text>
  <text x="1100" y="304" fill="#9DBBD6" font-size="11">stale GAK · git/hook/agent liveness</text>
  <text x="1100" y="340" fill="#E8F2FB" font-size="13" font-weight="700">harness-housekeeping.sh</text>
  <text x="1100" y="360" fill="#9DBBD6" font-size="11">git gc + repack + size report · HUMAN-RUN · monthly or when status WARNs .git is large</text>
  <text x="1100" y="376" fill="#9DBBD6" font-size="11">touches no records</text>
  <text x="1100" y="414" fill="#7FD1F0" font-size="11">status observes · failures prescribe · nothing heals itself</text>
  <text x="1100" y="432" fill="#7FD1F0" font-size="11">manual skim before a pack leaves the machine</text>

  <text x="1080" y="528" fill="#7FD1F0" font-size="11" letter-spacing="2">SHARED RECOGNITION + PORTABILITY · ONE HOME EACH · SOURCED, NEVER COPIED</text>
  <rect x="1080" y="540" width="780" height="300" fill="none" stroke="#7FD1F0" stroke-width="1.5"></rect>
  <rect x="1100" y="560" width="740" height="84" fill="#1B3E5F" stroke="#CFE4F5" stroke-width="1.5"></rect>
  <text x="1116" y="586" fill="#E8F2FB" font-size="13" font-weight="700">ticket-grammar.sh</text>
  <text x="1116" y="606" fill="#9DBBD6" font-size="11">TICKET_RE + ticket predicates — what counts as a ticket</text>
  <text x="1116" y="622" fill="#9DBBD6" font-size="11">edit here to retarget your board; both readers follow</text>
  <rect x="1100" y="664" width="740" height="84" fill="#1B3E5F" stroke="#CFE4F5" stroke-width="1.5"></rect>
  <text x="1116" y="690" fill="#E8F2FB" font-size="13" font-weight="700">portability.sh</text>
  <text x="1116" y="710" fill="#9DBBD6" font-size="11">GNU/BSD shims — ts14 → epoch, and friends</text>
  <text x="1116" y="726" fill="#9DBBD6" font-size="11">one conversion home; GNU and BSD read alike</text>
  <text x="1100" y="780" fill="#F5B84A" font-size="11">the validator (L2) and harness-status (M) both SOURCE these —</text>
  <text x="1100" y="798" fill="#F5B84A" font-size="11">no private copy, so their view of the estate can&#39;t drift</text>

  <rect x="1080" y="880" width="780" height="80" fill="none" stroke="#CFE4F5" stroke-width="1" stroke-dasharray="4 3"></rect>
  <text x="1100" y="906" fill="#E8F2FB" font-size="11.5" font-weight="700">HOW TO READ</text>
  <text x="1100" y="928" fill="#9DBBD6" font-size="11">the left stack is the chain of command, top-down;</text>
  <text x="1100" y="944" fill="#9DBBD6" font-size="11">these right panels sit beside it — sourced or invoked on demand</text>

  <text x="1080" y="1006" fill="#7FD1F0" font-size="11" letter-spacing="3">THE PATTERN — REPEATED AT EVERY LAYER</text>
  <g font-size="12" font-weight="700" fill="#E8F2FB">
    <rect x="1080" y="1018" width="168" height="64" fill="#1B3E5F" stroke="#CFE4F5" stroke-width="1.5"></rect>
    <text x="1164" y="1056" text-anchor="middle">FILE = RULE</text>
    <rect x="1276" y="1018" width="168" height="64" fill="#1B3E5F" stroke="#CFE4F5" stroke-width="1.5"></rect>
    <text x="1360" y="1056" text-anchor="middle">AGENT = WORK</text>
    <rect x="1472" y="1018" width="168" height="64" fill="#1B3E5F" stroke="#F5B84A" stroke-width="1.5"></rect>
    <text x="1556" y="1056" text-anchor="middle">HOOK = CATCH</text>
    <rect x="1668" y="1018" width="168" height="64" fill="#1B3E5F" stroke="#CFE4F5" stroke-width="1.5"></rect>
    <text x="1752" y="1056" text-anchor="middle">GIT = UNDO</text>
  </g>
  <g stroke="#CFE4F5" stroke-width="1.5">
    <line x1="1248" y1="1050" x2="1272" y2="1050" marker-end="url(#arrow)"></line>
    <line x1="1444" y1="1050" x2="1468" y2="1050" marker-end="url(#arrow)"></line>
    <line x1="1640" y1="1050" x2="1664" y2="1050" marker-end="url(#arrow)"></line>
  </g>

  <g font-size="10" fill="#9DBBD6" letter-spacing="1">
    <line x1="60" y1="1180" x2="1860" y2="1180" stroke="#3D6A94" stroke-width="1"></line>
    <text x="60" y="1204">PROJECT: AI HARNESS v2</text>
    <text x="560" y="1204">DRAWN: THE HARNESS PROJECT</text>
    <text x="1060" y="1204">CLIENT: YOU</text>
    <text x="1860" y="1204" text-anchor="end">SCALE: NTS · 2026-07</text>
  </g>
</svg>